<?xml version="1.0" standalone="no"?>
<!DOCTYPE svg PUBLIC "-//W3C//DTD SVG 20010904//EN"
 "http://www.w3.org/TR/2001/REC-SVG-20010904/DTD/svg10.dtd">
<svg version="1.0" xmlns="http://www.w3.org/2000/svg"
 width="476.000000pt" height="363.000000pt" viewBox="0 0 476.000000 363.000000"
 preserveAspectRatio="xMidYMid meet">

<g transform="translate(0.000000,363.000000) scale(0.100000,-0.100000)"
fill="#2B4FA5" stroke="none">
<path d="M2900 3231 c-62 -20 -127 -58 -182 -107 -30 -27 -43 -32 -70 -29
-140 19 -220 24 -236 16 -35 -19 -892 -891 -892 -908 0 -10 130 -148 293 -311
218 -218 298 -292 316 -292 17 0 94 71 303 283 153 155 354 357 445 448 l166
167 -13 129 -13 130 45 55 c25 31 58 82 74 114 24 50 28 72 29 141 0 96 -15
125 -85 161 -53 26 -105 27 -180 3z m135 -93 c47 -21 45 -103 -3 -192 l-27
-50 -10 73 c-11 82 -27 101 -84 101 -20 0 -46 3 -59 6 l-23 7 22 15 c30 21
109 51 136 52 12 0 34 -5 48 -12z m-428 -142 c3 -2 -3 -28 -13 -58 -15 -48
-21 -55 -65 -76 -81 -39 -123 -132 -100 -219 25 -92 106 -148 203 -141 70 5
121 40 156 109 51 96 -2 227 -106 265 -4 2 28 87 38 99 7 8 32 9 86 3 43 -5
80 -10 82 -13 3 -3 15 -100 28 -217 l22 -213 -406 -408 -407 -407 -240 240
-240 240 405 406 405 406 74 -6 c41 -3 76 -8 78 -10z m103 -307 c0 -64 -83
-110 -141 -79 -45 25 -60 110 -25 139 11 9 14 1 19 -36 7 -69 47 -93 88 -52
16 16 19 30 16 66 l-4 47 23 -28 c14 -15 24 -40 24 -57z"/>
<path d="M2062 2376 c-84 -84 -152 -161 -152 -170 0 -21 35 -56 57 -56 10 0
86 69 170 153 116 116 153 159 153 178 0 32 -17 49 -50 49 -21 0 -59 -33 -178
-154z"/>
<path d="M2233 2217 c-155 -155 -173 -183 -141 -215 32 -32 60 -14 203 129
165 163 175 177 151 214 -31 47 -51 34 -213 -128z"/>
<path d="M1325 1339 c-140 -34 -294 -104 -360 -164 -35 -33 -37 -38 -32 -81 3
-32 13 -55 31 -72 l26 -26 47 45 c58 55 112 93 120 85 4 -4 -11 -57 -32 -119
-21 -61 -45 -133 -54 -159 -9 -30 -21 -48 -31 -48 -24 0 -76 36 -101 69 -24
33 -39 40 -39 17 0 -17 73 -91 112 -114 27 -16 29 -20 23 -57 -20 -111 -22
-132 -14 -151 8 -23 46 -54 64 -54 7 0 17 28 23 63 7 34 17 79 22 99 l11 38
122 -124 c131 -132 209 -186 327 -227 84 -29 248 -33 295 -7 58 31 79 72 62
123 -6 17 2 25 47 48 29 15 68 43 86 62 l34 35 20 -38 c41 -72 141 -94 210
-47 51 34 82 71 109 128 18 39 26 47 42 43 11 -3 25 -6 32 -6 9 0 11 -17 6
-63 -7 -78 12 -122 63 -143 53 -22 100 -9 155 43 36 34 48 40 52 28 10 -24 69
-55 107 -55 40 0 109 32 123 56 7 12 13 8 29 -24 12 -27 32 -46 56 -58 35 -16
38 -16 72 2 19 11 51 43 70 72 l34 52 17 -33 c26 -49 73 -71 142 -65 32 3 57
1 57 -4 0 -4 -3 -8 -7 -8 -101 -5 -209 -21 -229 -35 -46 -30 -71 -137 -29
-121 19 7 149 32 206 40 l46 7 18 -42 c49 -107 169 -129 244 -43 36 40 47 77
35 112 -14 39 -53 60 -129 72 -38 6 -71 13 -74 15 -7 7 45 135 126 313 49 108
72 169 68 182 -6 18 -64 70 -78 70 -4 0 -13 -13 -21 -29 l-15 -29 -43 15
c-151 52 -330 -106 -346 -306 -2 -36 -13 -82 -22 -101 -25 -47 -74 -93 -97
-88 -15 3 -18 13 -17 72 1 61 6 78 56 179 31 62 58 120 62 130 10 30 -87 124
-103 100 -3 -6 -23 -2 -46 9 l-40 19 77 -6 c43 -3 99 -12 125 -20 62 -19 60
-20 67 16 8 41 -16 90 -56 114 -39 23 -235 32 -348 17 -41 -6 -76 -10 -78 -8
-1 2 2 15 9 28 9 20 8 32 -5 56 -17 34 -83 79 -95 66 -4 -5 -23 -49 -41 -97
-37 -97 -38 -98 -135 -116 -71 -13 -98 -2 -93 37 2 21 8 27 26 26 25 -1 30 11
7 20 -24 9 -75 -41 -75 -74 0 -16 5 -32 10 -35 16 -10 12 -21 -14 -33 -62 -28
-91 -184 -48 -257 l22 -36 -36 -54 c-39 -59 -87 -95 -127 -95 -39 0 -57 25
-57 80 0 56 22 117 75 210 21 36 40 83 42 106 5 36 2 43 -31 72 -20 18 -40 32
-45 32 -4 0 -31 -48 -59 -107 -53 -112 -82 -208 -82 -279 0 -35 -6 -47 -35
-73 -54 -47 -128 -81 -177 -81 -78 0 -118 50 -118 146 0 49 2 55 18 49 99 -39
235 21 277 122 25 58 19 98 -18 139 -116 127 -340 -44 -355 -272 -5 -87 8
-133 55 -185 38 -41 98 -65 139 -55 36 9 29 -3 -11 -20 -84 -35 -259 -9 -399
60 -82 40 -216 136 -216 154 0 4 25 8 56 10 193 10 382 152 469 352 13 29 20
67 20 108 0 61 -1 65 -41 101 -65 62 -137 84 -284 87 -69 2 -143 -1 -165 -7z
m280 -110 c25 -6 56 -22 71 -36 23 -21 26 -29 20 -66 -4 -23 -23 -75 -43 -116
-78 -157 -204 -247 -361 -258 -44 -3 -91 -3 -106 1 l-26 6 20 50 c11 27 38 85
60 129 22 45 40 91 40 104 0 23 -46 74 -84 94 -16 9 -11 14 39 38 121 59 265
80 370 54z m1425 -189 c-8 -5 -24 -10 -36 -10 -28 0 -103 -50 -138 -91 -16
-19 -43 -63 -59 -98 -26 -54 -30 -76 -30 -140 0 -64 -3 -80 -21 -99 -27 -31
-69 -52 -101 -52 -22 0 -25 4 -25 39 0 54 50 192 121 333 l59 117 72 3 c40 2
96 4 123 5 36 2 46 0 35 -7z m-401 -70 c-10 -25 -33 -91 -51 -147 -33 -102
-43 -115 -75 -95 -10 6 -7 31 13 108 15 58 24 116 21 139 l-4 40 57 0 58 0
-19 -45z m-138 -12 c5 -59 -36 -191 -52 -167 -24 38 6 179 37 179 8 0 14 -6
15 -12z m-531 -55 c0 -41 -80 -113 -125 -113 -19 0 -35 3 -35 7 0 3 14 28 31
55 33 51 69 77 107 78 17 0 22 -6 22 -27z m1117 -2 l31 -20 -25 -68 c-14 -37
-30 -99 -37 -138 -10 -62 -15 -72 -45 -92 -47 -32 -104 -31 -136 2 -21 20 -25
34 -25 88 0 98 53 189 135 231 40 21 63 20 102 -3z m518 7 c31 -14 31 -19 -4
-115 -15 -43 -36 -109 -46 -146 -20 -75 -34 -88 -96 -89 -49 0 -75 21 -90 76
-22 80 10 167 86 234 57 50 101 62 150 40z m151 -513 c26 -67 -82 -129 -138
-78 -18 16 -48 64 -48 77 0 6 52 12 123 14 43 2 59 -2 63 -13z"/>
</g>
</svg>
